<?xml version="1.0" encoding="UTF-8"?>
<svg id="uuid-e7a1a948-ebf3-4a08-8110-591d78404a1e" data-name="Layer 2" xmlns="http://www.w3.org/2000/svg" viewBox="0 0 578.2 600">
  <g id="uuid-737d4dcd-b01d-4f6f-8641-48eedca27c95" data-name="Layer 1">
    <path d="M243.31,600c-43.03,0-83-10.31-119.91-30.96-36.93-20.63-66.71-53.05-89.39-97.24C11.34,427.63,0,370.35,0,300c0-58.72,12.06-110.61,36.19-155.67,24.12-45.05,59.15-80.37,105.09-105.96C187.2,12.8,242.73,0,307.85,0c41.86,0,80.08,5.82,114.68,17.44,34.58,11.64,64.67,28.06,90.26,49.27,25.58,21.23,45.35,46.37,59.3,75.44l-130.81,103.78c-4.08-18.01-12.07-34.15-23.98-48.4-11.92-14.24-27.04-25.43-45.35-33.58-18.32-8.14-39.68-12.21-64.1-12.21-30.24,0-55.68,6.11-76.31,18.31-20.64,12.21-36.05,29.37-46.22,51.45-10.18,22.1-15.26,48.27-15.26,78.49,0,33.14,5.81,61.05,17.44,83.72,11.62,22.67,27.76,39.83,48.4,51.45,20.63,11.64,44.33,17.44,71.08,17.44,21.5,0,40.25-2.9,56.25-8.72,15.98-5.8,29.94-14.09,41.86-24.85,11.91-10.75,21.65-22.81,29.21-36.19h6.11l-1.74,5.23c-2.33,48.27-11.49,88.08-27.47,119.48-16,31.4-38.09,54.66-66.28,69.77-28.21,15.13-62.07,22.67-101.6,22.67ZM578.2,593.02h-106.39l-33.14-204.94h-155.23v-122.09h294.77v327.04Z" style="fill: #fff;"/>
  </g>
</svg>